<?xml version="1.0" ?><svg height="32" id="svg17515" version="1.1" viewBox="0 0 32 32.000001" width="32" xmlns="http://www.w3.org/2000/svg" xmlns:cc="http://creativecommons.org/ns#" xmlns:dc="http://purl.org/dc/elements/1.1/" xmlns:inkscape="http://www.inkscape.org/namespaces/inkscape" xmlns:rdf="http://www.w3.org/1999/02/22-rdf-syntax-ns#" xmlns:sodipodi="http://sodipodi.sourceforge.net/DTD/sodipodi-0.dtd" xmlns:svg="http://www.w3.org/2000/svg"><defs id="defs17517"><clipPath clipPathUnits="userSpaceOnUse" id="clipPath32617-9-8-8-9"><circle cx="-64.623535" cy="50.047192" id="path32619-2-3-5-1" r="38.553814" style="fill:#4bb7c0;fill-opacity:1;stroke:none" transform="matrix(9.3443438,0,0,9.3443438,-627.91229,-5859.5225)"/></clipPath><clipPath clipPathUnits="userSpaceOnUse" id="clipPath19550"><circle cx="-64.623535" cy="50.047192" id="circle19552" r="38.553814" style="fill:#4bb7c0;fill-opacity:1;stroke:none" transform="matrix(9.3443438,0,0,9.3443438,-627.91229,-5859.5225)"/></clipPath></defs><g id="layer1" transform="translate(0,-1020.3622)"><g id="g38611" style="display:inline" transform="translate(568.31609,158.93539)"><path d="m -552.30078,866.44463 a 0.50004997,0.50004997 0 0 0 -0.49219,0.50781 l 0,1.23633 a 0.50004997,0.50004997 0 1 0 1,0 l 0,-1.23633 a 0.50004997,0.50004997 0 0 0 -0.50781,-0.50781 z" id="path147220" style="color:#000000;font-style:normal;font-variant:normal;font-weight:normal;font-stretch:normal;font-size:medium;line-height:normal;font-family:sans-serif;text-indent:0;text-align:start;text-decoration:none;text-decoration-line:none;text-decoration-style:solid;text-decoration-color:#000000;letter-spacing:normal;word-spacing:normal;text-transform:none;direction:ltr;writing-mode:lr-tb;baseline-shift:baseline;text-anchor:start;white-space:normal;clip-rule:nonzero;display:inline;overflow:visible;visibility:visible;opacity:1;isolation:auto;mix-blend-mode:normal;color-interpolation:sRGB;color-interpolation-filters:linearRGB;solid-color:#000000;solid-opacity:1;fill:#545773;fill-opacity:1;fill-rule:evenodd;stroke:none;stroke-width:0.99999994px;stroke-linecap:round;stroke-linejoin:round;stroke-miterlimit:4;stroke-dasharray:none;stroke-dashoffset:0;stroke-opacity:1;color-rendering:auto;image-rendering:auto;shape-rendering:auto;text-rendering:auto;enable-background:accumulate"/><path d="m -552.6447,868.05173 c -0.35916,0.1477 -0.69904,0.4216 -1.01172,0.8203 -0.4724,0.6022 -0.8907,1.4632 -1.23828,2.5136 -0.68926,2.083 -1.19612,4.89518 -1.20313,7.90828 -0.8297,-1.3161 -2.16974,-2.11888 -3.73242,-2.12108 -1.63696,0 -3.10639,0.9165 -3.91211,2.33 0.11951,-6.1657 4.97785,-11.1578 11.09766,-11.4511 z" id="path38591" style="color:#000000;font-style:normal;font-variant:normal;font-weight:normal;font-stretch:normal;font-size:medium;line-height:normal;font-family:sans-serif;text-indent:0;text-align:start;text-decoration:none;text-decoration-line:none;text-decoration-style:solid;text-decoration-color:#000000;letter-spacing:normal;word-spacing:normal;text-transform:none;direction:ltr;writing-mode:lr-tb;baseline-shift:baseline;text-anchor:start;white-space:normal;clip-rule:nonzero;display:inline;overflow:visible;visibility:visible;opacity:1;isolation:auto;mix-blend-mode:normal;color-interpolation:sRGB;color-interpolation-filters:linearRGB;solid-color:#000000;solid-opacity:1;fill:#ff766c;fill-opacity:1;fill-rule:nonzero;stroke:none;stroke-width:0.1;stroke-linecap:round;stroke-linejoin:round;stroke-miterlimit:4;stroke-dasharray:none;stroke-dashoffset:0;stroke-opacity:1;color-rendering:auto;image-rendering:auto;shape-rendering:auto;text-rendering:auto;enable-background:accumulate"/><path d="m -551.98748,868.05173 c 6.11795,0.2932 10.97517,5.2822 11.09766,11.4453 -0.80715,-1.4112 -2.27644,-2.3233 -3.91211,-2.3242 -1.5603,0 -2.83644,0.81005 -3.66563,2.12365 -0.007,-3.0123 -0.57723,-5.82835 -1.26796,-7.91085 -0.34841,-1.0504 -0.76527,-1.9114 -1.23828,-2.5136 -0.31309,-0.3987 -0.65408,-0.6726 -1.01368,-0.8203 z" id="path147196" style="color:#000000;font-style:normal;font-variant:normal;font-weight:normal;font-stretch:normal;font-size:medium;line-height:normal;font-family:sans-serif;text-indent:0;text-align:start;text-decoration:none;text-decoration-line:none;text-decoration-style:solid;text-decoration-color:#000000;letter-spacing:normal;word-spacing:normal;text-transform:none;direction:ltr;writing-mode:lr-tb;baseline-shift:baseline;text-anchor:start;white-space:normal;clip-rule:nonzero;display:inline;overflow:visible;visibility:visible;opacity:1;isolation:auto;mix-blend-mode:normal;color-interpolation:sRGB;color-interpolation-filters:linearRGB;solid-color:#000000;solid-opacity:1;fill:#43b6c2;fill-opacity:1;fill-rule:nonzero;stroke:none;stroke-width:0.1;stroke-linecap:round;stroke-linejoin:round;stroke-miterlimit:4;stroke-dasharray:none;stroke-dashoffset:0;stroke-opacity:1;color-rendering:auto;image-rendering:auto;shape-rendering:auto;text-rendering:auto;enable-background:accumulate"/><path d="m -552.30054,876.40903 c -0.27614,0.004 -0.4965,0.23166 -0.49219,0.5078 l 0,8.9942 c 0,0.8331 -0.6654,1.498 -1.5,1.498 -0.8346,0 -1.5,-0.6649 -1.5,-1.498 0.01,-0.67616 -1.00956,-0.67616 -1,0 0,1.374 1.12546,2.498 2.5,2.498 1.61515,0.005 2.50068,-1.1633 2.5,-2.498 l 0,-8.9942 c 0.004,-0.28226 -0.22555,-0.51222 -0.50781,-0.5078 z" id="path21374-9" style="color:#000000;font-style:normal;font-variant:normal;font-weight:normal;font-stretch:normal;font-size:medium;line-height:normal;font-family:sans-serif;text-indent:0;text-align:start;text-decoration:none;text-decoration-line:none;text-decoration-style:solid;text-decoration-color:#000000;letter-spacing:normal;word-spacing:normal;text-transform:none;direction:ltr;writing-mode:lr-tb;baseline-shift:baseline;text-anchor:start;white-space:normal;clip-rule:nonzero;display:inline;overflow:visible;visibility:visible;opacity:1;isolation:auto;mix-blend-mode:normal;color-interpolation:sRGB;color-interpolation-filters:linearRGB;solid-color:#000000;solid-opacity:1;fill:#545773;fill-opacity:1;fill-rule:evenodd;stroke:none;stroke-width:0.99999988px;stroke-linecap:round;stroke-linejoin:round;stroke-miterlimit:4;stroke-dasharray:none;stroke-dashoffset:0;stroke-opacity:1;color-rendering:auto;image-rendering:auto;shape-rendering:auto;text-rendering:auto;enable-background:accumulate"/><path d="m -552.30078,-143.95312 a 0.50004994,0.50004994 0 0 0 -0.49219,0.50781 l 0,0.95898 c 0.16525,-0.0188 0.33114,-0.0312 0.5,-0.0312 0.16856,2.4e-4 0.33502,0.0144 0.5,0.0332 l 0,-0.96093 a 0.50004994,0.50004994 0 0 0 -0.50781,-0.50781 z" id="path41813" style="color:#000000;font-style:normal;font-variant:normal;font-weight:normal;font-stretch:normal;font-size:medium;line-height:normal;font-family:sans-serif;text-indent:0;text-align:start;text-decoration:none;text-decoration-line:none;text-decoration-style:solid;text-decoration-color:#000000;letter-spacing:normal;word-spacing:normal;text-transform:none;direction:ltr;writing-mode:lr-tb;baseline-shift:baseline;text-anchor:start;white-space:normal;clip-rule:nonzero;display:inline;overflow:visible;visibility:visible;opacity:1;isolation:auto;mix-blend-mode:normal;color-interpolation:sRGB;color-interpolation-filters:linearRGB;solid-color:#000000;solid-opacity:1;fill:#474a62;fill-opacity:1;fill-rule:nonzero;stroke:none;stroke-width:0.1;stroke-linecap:round;stroke-linejoin:round;stroke-miterlimit:4;stroke-dasharray:none;stroke-dashoffset:0;stroke-opacity:1;color-rendering:auto;image-rendering:auto;shape-rendering:auto;text-rendering:auto;enable-background:accumulate" transform="translate(0,1020.3622)"/><path d="m -552.29297,868.02433 c 0.53215,0 1.03798,0.3219 1.5,0.9102 0.46203,0.5882 0.87664,1.4411 1.22266,2.4843 0.68644,2.0697 1.10073,4.8892 1.10742,7.8946 -0.82925,-1.3188 -2.26557,-2.1384 -3.83008,-2.1406 -1.56214,0 -2.99547,0.8223 -3.82422,2.1386 0.007,-3.0046 0.42079,-5.8234 1.10547,-7.8926 0.34521,-1.0432 0.75929,-1.8961 1.2207,-2.4843 0.46142,-0.5883 0.9659,-0.9102 1.49805,-0.9102 z" id="path38593" style="color:#000000;font-style:normal;font-variant:normal;font-weight:normal;font-stretch:normal;font-size:medium;line-height:normal;font-family:sans-serif;text-indent:0;text-align:start;text-decoration:none;text-decoration-line:none;text-decoration-style:solid;text-decoration-color:#000000;letter-spacing:normal;word-spacing:normal;text-transform:none;direction:ltr;writing-mode:lr-tb;baseline-shift:baseline;text-anchor:start;white-space:normal;clip-rule:nonzero;display:inline;overflow:visible;visibility:visible;opacity:1;isolation:auto;mix-blend-mode:normal;color-interpolation:sRGB;color-interpolation-filters:linearRGB;solid-color:#000000;solid-opacity:1;fill:#ffd158;fill-opacity:1;fill-rule:nonzero;stroke:none;stroke-width:0.1;stroke-linecap:round;stroke-linejoin:round;stroke-miterlimit:4;stroke-dasharray:none;stroke-dashoffset:0;stroke-opacity:1;color-rendering:auto;image-rendering:auto;shape-rendering:auto;text-rendering:auto;enable-background:accumulate"/></g></g></svg>